<svg width="43" height="42" viewBox="0 0 43 42" fill="none" xmlns="http://www.w3.org/2000/svg">
<path d="M21.1396 36.12C15.8896 36.12 11.2486 33.432 8.53965 29.4C8.60265 25.2 16.9396 22.89 21.1396 22.89C25.3396 22.89 33.6766 25.2 33.7396 29.4C32.3513 31.4673 30.4759 33.1614 28.2787 34.3333C26.0815 35.5051 23.6298 36.1187 21.1396 36.12ZM21.1396 6.3C22.8105 6.3 24.4129 6.96375 25.5944 8.14523C26.7759 9.32671 27.4396 10.9291 27.4396 12.6C27.4396 14.2709 26.7759 15.8733 25.5944 17.0548C24.4129 18.2363 22.8105 18.9 21.1396 18.9C19.4688 18.9 17.8664 18.2363 16.6849 17.0548C15.5034 15.8733 14.8396 14.2709 14.8396 12.6C14.8396 10.9291 15.5034 9.32671 16.6849 8.14523C17.8664 6.96375 19.4688 6.3 21.1396 6.3ZM21.1396 0C18.3819 0 15.6511 0.543181 13.1033 1.59853C10.5555 2.65388 8.24044 4.20073 6.29041 6.15076C2.35214 10.089 0.139648 15.4305 0.139648 21C0.139648 26.5695 2.35214 31.911 6.29041 35.8492C8.24044 37.7993 10.5555 39.3461 13.1033 40.4015C15.6511 41.4568 18.3819 42 21.1396 42C26.7092 42 32.0506 39.7875 35.9889 35.8492C39.9272 31.911 42.1396 26.5695 42.1396 21C42.1396 9.387 32.6896 0 21.1396 0Z" fill="none"/>
</svg>
